<svg width="22" height="22" viewBox="0 0 22 22" fill="none" xmlns="http://www.w3.org/2000/svg">
<path d="M10.9688 0C8.79934 0 6.67865 0.643306 4.87484 1.84857C3.07104 3.05383 1.66515 4.76691 0.834951 6.77119C0.00475259 8.77547 -0.212465 10.9809 0.210766 13.1086C0.633998 15.2364 1.67867 17.1908 3.21268 18.7248C4.74669 20.2588 6.70113 21.3035 8.82886 21.7267C10.9566 22.15 13.162 21.9328 15.1663 21.1026C17.1706 20.2724 18.8837 18.8665 20.0889 17.0627C21.2942 15.2589 21.9375 13.1382 21.9375 10.9688C21.9344 8.0606 20.7778 5.27244 18.7214 3.21606C16.6651 1.15969 13.8769 0.00307106 10.9688 0ZM11.8125 20.211V13.5H14.3438C14.5675 13.5 14.7821 13.4111 14.9404 13.2529C15.0986 13.0946 15.1875 12.88 15.1875 12.6563C15.1875 12.4325 15.0986 12.2179 14.9404 12.0596C14.7821 11.9014 14.5675 11.8125 14.3438 11.8125H11.8125V9.28125C11.8125 8.8337 11.9903 8.40448 12.3068 8.08801C12.6232 7.77154 13.0525 7.59375 13.5 7.59375H15.1875C15.4113 7.59375 15.6259 7.50486 15.7841 7.34662C15.9424 7.18839 16.0313 6.97378 16.0313 6.75C16.0313 6.52622 15.9424 6.31161 15.7841 6.15338C15.6259 5.99515 15.4113 5.90625 15.1875 5.90625H13.5C12.6049 5.90625 11.7465 6.26183 11.1135 6.89476C10.4806 7.5277 10.125 8.38614 10.125 9.28125V11.8125H7.59376C7.36998 11.8125 7.15537 11.9014 6.99713 12.0596C6.8389 12.2179 6.75001 12.4325 6.75001 12.6563C6.75001 12.88 6.8389 13.0946 6.99713 13.2529C7.15537 13.4111 7.36998 13.5 7.59376 13.5H10.125V20.211C7.74647 19.9938 5.54319 18.8681 3.97347 17.068C2.40376 15.2678 1.58844 12.9318 1.69712 10.5458C1.8058 8.15989 2.8301 5.90768 4.55697 4.25768C6.28384 2.60767 8.58033 1.68691 10.9688 1.68691C13.3572 1.68691 15.6537 2.60767 17.3805 4.25768C19.1074 5.90768 20.1317 8.15989 20.2404 10.5458C20.3491 12.9318 19.5338 15.2678 17.964 17.068C16.3943 18.8681 14.191 19.9938 11.8125 20.211Z" fill="#00272B"/>
</svg>
