<svg width="22" height="22" viewBox="0 0 22 22" fill="none" xmlns="http://www.w3.org/2000/svg">
<path d="M10.9688 5.90625C9.96748 5.90625 8.9887 6.20316 8.15618 6.75944C7.32365 7.31571 6.67478 8.10636 6.29161 9.03141C5.90844 9.95647 5.80819 10.9744 6.00352 11.9564C6.19886 12.9384 6.68102 13.8405 7.38902 14.5485C8.09703 15.2565 8.99908 15.7386 9.98111 15.934C10.9631 16.1293 11.981 16.0291 12.9061 15.6459C13.8311 15.2627 14.6218 14.6138 15.1781 13.7813C15.7343 12.9488 16.0312 11.97 16.0312 10.9688C16.0299 9.62652 15.496 8.33966 14.5469 7.39056C13.5978 6.44146 12.311 5.90765 10.9688 5.90625ZM10.9688 14.3438C10.3012 14.3438 9.64872 14.1458 9.0937 13.775C8.53868 13.4041 8.1061 12.877 7.85066 12.2603C7.59521 11.6436 7.52837 10.965 7.6586 10.3103C7.78882 9.65563 8.11026 9.05427 8.58226 8.58226C9.05427 8.11026 9.65563 7.78882 10.3103 7.6586C10.965 7.52837 11.6436 7.59521 12.2603 7.85066C12.877 8.1061 13.4041 8.53868 13.775 9.0937C14.1458 9.64872 14.3438 10.3012 14.3438 10.9688C14.3438 11.8639 13.9882 12.7223 13.3552 13.3552C12.7223 13.9882 11.8639 14.3438 10.9688 14.3438ZM16.0312 0H5.90625C4.34033 0.00167508 2.83902 0.624477 1.73175 1.73175C0.624477 2.83902 0.00167508 4.34033 0 5.90625V16.0312C0.00167508 17.5972 0.624477 19.0985 1.73175 20.2057C2.83902 21.313 4.34033 21.9358 5.90625 21.9375H16.0312C17.5972 21.9358 19.0985 21.313 20.2057 20.2057C21.313 19.0985 21.9358 17.5972 21.9375 16.0312V5.90625C21.9358 4.34033 21.313 2.83902 20.2057 1.73175C19.0985 0.624477 17.5972 0.00167508 16.0312 0ZM20.25 16.0312C20.25 17.1501 19.8055 18.2232 19.0144 19.0144C18.2232 19.8055 17.1501 20.25 16.0312 20.25H5.90625C4.78737 20.25 3.71431 19.8055 2.92314 19.0144C2.13197 18.2232 1.6875 17.1501 1.6875 16.0312V5.90625C1.6875 4.78737 2.13197 3.71431 2.92314 2.92314C3.71431 2.13197 4.78737 1.6875 5.90625 1.6875H16.0312C17.1501 1.6875 18.2232 2.13197 19.0144 2.92314C19.8055 3.71431 20.25 4.78737 20.25 5.90625V16.0312ZM17.7188 5.48438C17.7188 5.73469 17.6445 5.97939 17.5055 6.18752C17.3664 6.39565 17.1687 6.55787 16.9375 6.65366C16.7062 6.74945 16.4517 6.77452 16.2062 6.72568C15.9607 6.67685 15.7352 6.55631 15.5582 6.37931C15.3812 6.20231 15.2607 5.97679 15.2118 5.73129C15.163 5.48578 15.188 5.2313 15.2838 5.00004C15.3796 4.76878 15.5419 4.57111 15.75 4.43205C15.9581 4.29298 16.2028 4.21875 16.4531 4.21875C16.7888 4.21875 17.1107 4.35209 17.3481 4.58944C17.5854 4.82679 17.7188 5.14871 17.7188 5.48438Z" fill="#00272B"/>
</svg>
