<svg width="22" height="22" viewBox="0 0 22 22" fill="none" xmlns="http://www.w3.org/2000/svg">
<path d="M20.25 0H1.6875C1.23995 0 0.810725 0.17779 0.494257 0.494257C0.17779 0.810725 0 1.23995 0 1.6875V20.25C0 20.6976 0.17779 21.1268 0.494257 21.4432C0.810725 21.7597 1.23995 21.9375 1.6875 21.9375H20.25C20.6976 21.9375 21.1268 21.7597 21.4432 21.4432C21.7597 21.1268 21.9375 20.6976 21.9375 20.25V1.6875C21.9375 1.23995 21.7597 0.810725 21.4432 0.494257C21.1268 0.17779 20.6976 0 20.25 0ZM20.25 20.25H1.6875V1.6875H20.25V20.25ZM7.59375 9.28125V16.0312C7.59375 16.255 7.50486 16.4696 7.34662 16.6279C7.18839 16.7861 6.97378 16.875 6.75 16.875C6.52622 16.875 6.31161 16.7861 6.15338 16.6279C5.99514 16.4696 5.90625 16.255 5.90625 16.0312V9.28125C5.90625 9.05747 5.99514 8.84286 6.15338 8.68463C6.31161 8.52639 6.52622 8.4375 6.75 8.4375C6.97378 8.4375 7.18839 8.52639 7.34662 8.68463C7.50486 8.84286 7.59375 9.05747 7.59375 9.28125ZM16.875 12.2344V16.0312C16.875 16.255 16.7861 16.4696 16.6279 16.6279C16.4696 16.7861 16.255 16.875 16.0312 16.875C15.8075 16.875 15.5929 16.7861 15.4346 16.6279C15.2764 16.4696 15.1875 16.255 15.1875 16.0312V12.2344C15.1875 11.6749 14.9653 11.1384 14.5697 10.7428C14.1741 10.3472 13.6376 10.125 13.0781 10.125C12.5187 10.125 11.9822 10.3472 11.5866 10.7428C11.191 11.1384 10.9688 11.6749 10.9688 12.2344V16.0312C10.9688 16.255 10.8799 16.4696 10.7216 16.6279C10.5634 16.7861 10.3488 16.875 10.125 16.875C9.90122 16.875 9.68661 16.7861 9.52838 16.6279C9.37014 16.4696 9.28125 16.255 9.28125 16.0312V9.28125C9.2823 9.07458 9.35916 8.87548 9.49726 8.72172C9.63537 8.56796 9.8251 8.47024 10.0305 8.44708C10.2358 8.42393 10.4426 8.47696 10.6114 8.59612C10.7803 8.71527 10.8996 8.89226 10.9466 9.09352C11.5174 8.70631 12.1829 8.4819 12.8716 8.44438C13.5603 8.40685 14.2462 8.55764 14.8557 8.88053C15.4651 9.20343 15.9751 9.68624 16.3309 10.2771C16.6867 10.868 16.8748 11.5447 16.875 12.2344ZM8.01562 6.32812C8.01562 6.57844 7.9414 6.82314 7.80233 7.03127C7.66326 7.2394 7.4656 7.40162 7.23433 7.49741C7.00307 7.5932 6.7486 7.61827 6.50309 7.56943C6.25758 7.5206 6.03207 7.40006 5.85507 7.22306C5.67807 7.04606 5.55753 6.82054 5.50869 6.57504C5.45986 6.32953 5.48492 6.07505 5.58071 5.84379C5.67651 5.61253 5.83873 5.41486 6.04686 5.2758C6.25499 5.13673 6.49968 5.0625 6.75 5.0625C7.08566 5.0625 7.40758 5.19584 7.64493 5.43319C7.88228 5.67054 8.01562 5.99246 8.01562 6.32812Z" fill="#00272B"/>
</svg>
