<svg width="135" height="34" viewBox="0 0 135 34" fill="none" xmlns="http://www.w3.org/2000/svg">
<path d="M28.3004 0.10718C28.1068 -0.01152 27.8756 -0.0297882 27.6726 0.0432578L16.4535 4.10643L14.9148 2.61357L14.3342 2.03833C14.3342 2.03833 14.3059 2.00635 14.2871 1.99266L14.2587 1.96072C14.0794 1.81006 13.8198 1.7507 13.5791 1.82831L1.50092 5.78648C1.27437 5.85496 1.09973 6.02845 1.03365 6.24759C0.967575 6.47129 1.01949 6.70871 1.17053 6.89132L4.38948 10.8221L0.231276 14.6479C0.0849603 14.7803 0 14.972 0 15.1684C0 15.3647 0.0849557 15.5518 0.226552 15.6888L18.9031 32.9688C18.9031 32.9688 18.9078 32.9688 18.9078 32.9733L18.9503 33.0098C19.0919 33.1331 19.2854 33.197 19.4836 33.1787H19.4978C19.7951 33.1468 20.0406 32.9459 20.1114 32.6674L28.6166 0.851311C28.6874 0.559127 28.5647 0.262398 28.3051 0.10261M24.1138 2.77791L19.1155 6.68131L17.539 5.15649L24.1138 2.77334V2.77791ZM2.85081 6.77719L12.0593 3.75948L5.39953 9.88621L2.85081 6.77719ZM14.103 3.75034L18.0205 7.5396L10.497 13.4198C10.2232 13.6344 10.1336 13.995 10.2752 14.3055L17.3172 29.6406L1.685 15.1775L14.103 3.75034ZM19.2382 30.4898L11.7478 14.1776L26.7286 2.47204L19.2382 30.4898Z" fill="#00272B"/>
<path d="M34.73 29.808V23.2692H36.2238L37.7177 26.8605L38.2961 28.4248H38.3766L38.9449 26.8605L40.4086 23.2692H41.9025V29.808H40.8563V25.9401L40.8965 24.8486H40.8261L40.4136 25.9401L38.95 29.4157H37.6825L36.2087 25.9401L35.8164 24.8486H35.7309L35.7913 25.9401V29.808H34.735H34.73Z" fill="#00272B"/>
<path d="M51.8926 29.808L54.4427 23.2692H55.9566L58.5067 29.808H57.365L56.7011 28.1079H53.6631L52.9991 29.808H51.8976H51.8926ZM54.0302 27.1623H56.3238L55.6398 25.432L55.2223 24.2199H55.1418L54.7143 25.432L54.0302 27.1623Z" fill="#00272B"/>
<path d="M68.5054 29.808V23.2692H71.317C72.7606 23.2692 73.671 23.9835 73.671 25.2208C73.671 26.3022 73.007 26.9611 71.8552 27.0164V27.0969C72.333 27.2529 72.6147 27.5446 72.8612 27.9973L73.8369 29.813H72.6147L71.6892 28.123C71.3874 27.5546 71.1108 27.2931 70.3312 27.2931H69.5616V29.813H68.5054V29.808ZM69.5566 26.4179H71.4428C72.2928 26.4179 72.6147 26.106 72.6147 25.3164C72.6147 24.5267 72.2928 24.2148 71.4428 24.2148H69.5566V26.4229V26.4179Z" fill="#00272B"/>
<path d="M83.9976 29.808V23.2692H85.0538V26.0608H86.5678L88.288 23.2692H89.4901L87.4581 26.5084L89.48 29.808H88.2679L86.5879 27.0768H85.0538V29.808H83.9976Z" fill="#00272B"/>
<path d="M99.4736 29.808V23.2692H104.151V24.2148H100.53V26.0407H104.005V26.9963H100.53V28.8624H104.151V29.808H99.4736Z" fill="#00272B"/>
<path d="M116.401 29.808V24.2148H114.172V23.2692H119.67V24.2148H117.442V29.808H116.396H116.401Z" fill="#00272B"/>
<path d="M129.639 27.7767V27.6107H130.675V27.7164C130.675 28.5262 131.017 28.9386 132.385 28.9386C133.351 28.9386 133.703 28.6771 133.703 28.0685C133.703 27.4599 133.507 27.2587 132.501 27.0524L131.389 26.8261C130.268 26.6098 129.659 26.0666 129.659 25.0304C129.659 24.0647 130.408 23.1644 132.098 23.1644C133.904 23.1644 134.628 24.1804 134.628 25.3423V25.458H133.592V25.3524C133.592 24.5526 133.24 24.1301 132.068 24.1301C131.102 24.1301 130.71 24.4017 130.71 24.9802C130.71 25.5586 130.972 25.7396 131.872 25.9358L132.984 26.1722C134.216 26.4237 134.749 27.0424 134.749 28.0282C134.749 29.0141 134.005 29.9043 132.34 29.9043C130.454 29.9043 129.634 29.0342 129.634 27.7767H129.639Z" fill="#00272B"/>
<path d="M40.9438 20.0606C39.6964 20.0606 38.5496 19.8443 37.4984 19.4067C36.4472 18.9691 35.5318 18.3806 34.7521 17.6262C33.9725 16.8767 33.3639 15.9915 32.9263 14.9805C32.4887 13.9695 32.2725 12.883 32.2725 11.7262C32.2725 10.5693 32.4887 9.48292 32.9263 8.47194C33.3589 7.45592 33.9675 6.5757 34.7521 5.82626C35.5318 5.07682 36.4472 4.48332 37.4984 4.04573C38.5496 3.60814 39.6964 3.39186 40.9438 3.39186C42.1912 3.39186 43.3229 3.60814 44.3792 4.04573C45.4404 4.48332 46.3559 5.07179 47.1405 5.82626C47.9201 6.5757 48.5287 7.46095 48.9663 8.47194C49.4039 9.48795 49.6202 10.5693 49.6202 11.7262C49.6202 12.883 49.4039 13.9695 48.9663 14.9805C48.5287 15.9965 47.9201 16.8767 47.1405 17.6262C46.3609 18.3756 45.4404 18.9691 44.3792 19.4067C43.3229 19.8443 42.1761 20.0606 40.9438 20.0606ZM40.9438 16.9069C41.6782 16.9069 42.3572 16.7812 42.9708 16.5246C43.5844 16.2681 44.1176 15.911 44.5703 15.4533C45.023 14.9956 45.3751 14.4524 45.6266 13.8186C45.8831 13.1849 46.0088 12.4907 46.0088 11.7212C46.0088 10.9516 45.8831 10.2575 45.6266 9.62878C45.37 9.00006 45.0179 8.45181 44.5703 7.9941C44.1176 7.53639 43.5844 7.17927 42.9708 6.92275C42.3522 6.66623 41.6782 6.54048 40.9438 6.54048C40.2095 6.54048 39.5304 6.66623 38.9168 6.92275C38.2981 7.17927 37.77 7.53639 37.3173 7.9941C36.8647 8.45181 36.5126 8.99503 36.2611 9.62878C36.0046 10.2575 35.8788 10.9567 35.8788 11.7212C35.8788 12.4857 36.0046 13.1849 36.2611 13.8186C36.5176 14.4473 36.8697 14.9956 37.3173 15.4533C37.77 15.911 38.3032 16.2681 38.9168 16.5246C39.5304 16.7812 40.2095 16.9069 40.9438 16.9069Z" fill="#00272B"/>
<path d="M50.7404 8.12637H53.8941V9.70573H54.0047C54.216 9.34359 54.4926 9.03174 54.8396 8.76013C55.1414 8.5187 55.5136 8.29738 55.9563 8.09619C56.3989 7.895 56.9522 7.78938 57.6111 7.78938C59.0244 7.78938 60.126 8.1968 60.9207 9.01665C61.7154 9.83651 62.1127 11.0437 62.1127 12.6331V19.6144H58.959V13.0807C58.959 12.2256 58.7478 11.5768 58.3303 11.1442C57.9078 10.7067 57.3294 10.4904 56.5951 10.4904C56.2329 10.4904 55.8909 10.5658 55.5589 10.7167C55.227 10.8676 54.9402 11.0738 54.6888 11.3354C54.4423 11.5969 54.2461 11.9188 54.1053 12.2911C53.9594 12.6683 53.889 13.0807 53.889 13.5284V19.6094H50.7354V8.12134L50.7404 8.12637Z" fill="#00272B"/>
<path d="M69.1 19.9524C68.2299 19.9524 67.4151 19.7964 66.6556 19.4796C65.8961 19.1627 65.2371 18.7301 64.6839 18.1819C64.1256 17.6336 63.693 16.9898 63.3761 16.2454C63.0592 15.501 62.9033 14.7113 62.9033 13.8663C62.9033 13.0213 63.0592 12.2316 63.3761 11.4923C63.693 10.7479 64.1256 10.1041 64.6839 9.5558C65.2371 9.00756 65.8961 8.57499 66.6556 8.25811C67.4151 7.94123 68.2299 7.78531 69.1 7.78531C69.9702 7.78531 70.8252 7.94123 71.5646 8.25811C72.309 8.57499 72.9528 9.00754 73.491 9.56584C74.0343 10.1191 74.4467 10.768 74.7434 11.5023C75.0352 12.2367 75.181 13.0263 75.181 13.8663V14.5403H66.1677C66.228 14.9025 66.3437 15.2445 66.5147 15.5764C66.6857 15.9084 66.907 16.1951 67.1686 16.4416C67.4301 16.688 67.7269 16.8842 68.0589 17.0301C68.3908 17.1709 68.7329 17.2413 69.095 17.2413C69.603 17.2413 70.0205 17.1709 70.3474 17.0301C70.6693 16.8892 70.9359 16.7333 71.1472 16.5673C71.3735 16.3712 71.5546 16.1448 71.6853 15.8933H75.0654C74.8239 16.6428 74.4517 17.3218 73.9387 17.9203C73.7123 18.1769 73.4508 18.4233 73.149 18.6647C72.8472 18.9062 72.5052 19.1224 72.1129 19.3186C71.7206 19.5148 71.2729 19.6657 70.7699 19.7813C70.2669 19.897 69.7086 19.9524 69.09 19.9524M71.8061 12.629C71.7457 12.3423 71.6401 12.0757 71.4892 11.8192C71.3383 11.5627 71.1472 11.3363 70.9158 11.1452C70.6844 10.949 70.4128 10.7931 70.106 10.6724C69.7992 10.5517 69.4622 10.4913 69.1051 10.4913C68.3707 10.4913 67.7571 10.7026 67.2692 11.1351C66.7813 11.5677 66.4544 12.0606 66.2884 12.634H71.8061V12.629Z" fill="#00272B"/>
<path d="M79.2397 3.84004H86.3367L90.5064 19.6085H87.0158L86.1154 16.1178H79.4711L78.5708 19.6085H75.0801L79.2498 3.84004H79.2397ZM85.3207 12.9691L83.7414 6.99876H81.825L80.2457 12.9691H85.3157H85.3207Z" fill="#00272B"/>
<path d="M91.5184 11.0519H90.0547V8.34588H91.5184V3.84421H97.9364V6.5452H94.672V8.34588H97.2624V11.0519H94.672V19.6126H91.5184V11.0519Z" fill="#00272B"/>
<path d="M98.1606 8.12637H101.314V9.81637H101.425C101.561 9.45423 101.762 9.14238 102.034 8.87077C102.26 8.62934 102.557 8.38791 102.934 8.15151C103.311 7.91008 103.784 7.78938 104.352 7.78938H105.705V10.8324H104.015C103.16 10.8324 102.496 11.0688 102.024 11.5416C101.551 12.0144 101.314 12.6532 101.314 13.4579V19.6194H98.1606V8.1314V8.12637Z" fill="#00272B"/>
<path d="M107.959 6.65747C107.451 6.65747 107.018 6.49148 106.676 6.14946C106.329 5.81246 106.158 5.41512 106.158 4.96747C106.158 4.51982 106.329 4.12244 106.676 3.78545C107.023 3.44845 107.451 3.27744 107.959 3.27744C108.467 3.27744 108.899 3.44342 109.241 3.78545C109.589 4.12244 109.76 4.51982 109.76 4.96747C109.76 5.41512 109.589 5.81246 109.241 6.14946C108.894 6.48645 108.467 6.65747 107.959 6.65747ZM106.385 8.12616H109.538V19.6142H106.385V8.12616Z" fill="#00272B"/>
<path d="M116.635 19.9524C115.765 19.9524 114.95 19.7964 114.191 19.4796C113.431 19.1627 112.772 18.7301 112.219 18.1819C111.661 17.6336 111.228 16.9898 110.911 16.2454C110.594 15.501 110.438 14.7113 110.438 13.8663C110.438 13.0213 110.594 12.2316 110.911 11.4923C111.228 10.7479 111.661 10.1041 112.219 9.5558C112.772 9.00756 113.431 8.57499 114.191 8.25811C114.95 7.94123 115.765 7.78531 116.635 7.78531C117.249 7.78531 117.807 7.8507 118.3 7.97644C118.793 8.10722 119.241 8.27321 119.628 8.48446C120.02 8.69571 120.362 8.93713 120.654 9.20371C120.946 9.47532 121.197 9.75195 121.408 10.0386C121.906 10.6975 122.264 11.452 122.49 12.292H119.22C119.085 11.96 118.904 11.6633 118.682 11.3917C118.471 11.1653 118.204 10.9591 117.883 10.773C117.561 10.5869 117.143 10.4913 116.63 10.4913C116.238 10.4913 115.866 10.5718 115.514 10.7378C115.161 10.9038 114.85 11.1301 114.578 11.4269C114.306 11.7186 114.095 12.0707 113.934 12.4831C113.778 12.8956 113.698 13.3583 113.698 13.8663C113.698 14.3743 113.778 14.8371 113.934 15.2545C114.09 15.667 114.306 16.0191 114.578 16.3158C114.85 16.6076 115.161 16.8389 115.514 17.0049C115.866 17.1709 116.238 17.2514 116.63 17.2514C117.138 17.2514 117.556 17.1608 117.883 16.9697C118.204 16.7836 118.471 16.5723 118.682 16.351C118.909 16.0794 119.09 15.7827 119.22 15.4507H122.49C122.294 16.2907 121.947 17.0401 121.454 17.704C121.242 17.9907 120.991 18.2674 120.699 18.539C120.408 18.8106 120.066 19.052 119.673 19.2583C119.281 19.4695 118.838 19.6355 118.335 19.7663C117.832 19.892 117.264 19.9574 116.635 19.9574" fill="#00272B"/>
<path d="M128.124 19.9505C127.39 19.9505 126.701 19.8046 126.062 19.523C125.423 19.2363 124.865 18.8339 124.382 18.3058C123.899 17.7776 123.522 17.1439 123.245 16.3894C122.968 15.64 122.828 14.8 122.828 13.8645C122.828 12.9289 122.963 12.094 123.245 11.3395C123.522 10.5901 123.899 9.95131 124.382 9.42318C124.865 8.90008 125.423 8.49264 126.062 8.20595C126.701 7.91925 127.39 7.77843 128.124 7.77843C128.753 7.77843 129.291 7.87399 129.734 8.06009C130.176 8.2462 130.548 8.45241 130.85 8.67875C131.197 8.95036 131.489 9.24713 131.73 9.5791H131.846V8.11541H135V19.6035H131.846V18.1398H131.73C131.489 18.4717 131.197 18.7736 130.85 19.0401C130.548 19.2665 130.176 19.4727 129.734 19.6588C129.291 19.8449 128.753 19.9405 128.124 19.9405M128.914 17.2445C129.769 17.2445 130.473 16.9528 131.021 16.3643C131.569 15.7808 131.846 14.9459 131.846 13.8645C131.846 12.7831 131.569 11.9532 131.021 11.3647C130.473 10.7762 129.769 10.4845 128.914 10.4845C128.119 10.4845 127.45 10.7762 126.907 11.3647C126.369 11.9481 126.097 12.7831 126.097 13.8645C126.097 14.9459 126.369 15.7808 126.907 16.3643C127.45 16.9528 128.114 17.2445 128.914 17.2445Z" fill="#00272B"/>
</svg>
