<svg width="19" height="21" viewBox="0 0 19 21" fill="none" xmlns="http://www.w3.org/2000/svg">
<path d="M18.4375 18.9538L11.8351 8.57777L18.3499 1.41117C18.4973 1.24508 18.5732 1.02761 18.5613 0.80591C18.5494 0.584206 18.4505 0.376139 18.2862 0.226817C18.1219 0.0774948 17.9054 -0.00104608 17.6835 0.00822214C17.4617 0.0174904 17.2525 0.113821 17.1012 0.276328L10.8954 7.10227L6.62497 0.391289C6.54882 0.271429 6.44365 0.172727 6.3192 0.104327C6.19476 0.0359281 6.05506 4.40124e-05 5.91305 9.98103e-08H0.850554C0.699271 -7.34732e-05 0.55075 0.0405288 0.420545 0.117555C0.290339 0.194582 0.183238 0.305199 0.110456 0.437824C0.0376737 0.570449 0.00188849 0.720203 0.00684691 0.871405C0.0118053 1.02261 0.0573251 1.16969 0.13864 1.29727L6.74098 11.6722L0.226179 18.8441C0.150101 18.9258 0.0909996 19.0218 0.0523007 19.1266C0.0136018 19.2313 -0.00392542 19.3427 0.000735498 19.4542C0.00539641 19.5658 0.0321528 19.6753 0.0794532 19.7765C0.126754 19.8776 0.193657 19.9683 0.276287 20.0434C0.358917 20.1185 0.45563 20.1765 0.56082 20.2139C0.666009 20.2514 0.777584 20.2675 0.889077 20.2615C1.00057 20.2555 1.10976 20.2275 1.21033 20.179C1.31089 20.1305 1.40083 20.0625 1.47493 19.9789L7.68071 13.153L11.9511 19.864C12.0279 19.9829 12.1334 20.0805 12.2578 20.148C12.3822 20.2154 12.5215 20.2505 12.6631 20.25H17.7256C17.8767 20.25 18.025 20.2093 18.1551 20.1323C18.2851 20.0554 18.3921 19.9449 18.4648 19.8124C18.5376 19.68 18.5734 19.5304 18.5686 19.3794C18.5638 19.2283 18.5185 19.0813 18.4375 18.9538ZM13.1261 18.5625L2.38723 1.6875H5.44583L16.1889 18.5625H13.1261Z" fill="#00272B"/>
</svg>
